REM DIRINDEX 1\2,1\3,1\4
REM DIRNAME cjc031,folder01,folder02,folder03
TITLE ""
FILE "CD1-10.mp3" MP3
  TRACK 01 AUDIO
    TITLE "2:cjc031_0484"
    INDEX 01 00:00:00
  TRACK 02 AUDIO
    TITLE "3:cjc031_0485"
    INDEX 01 00:01:21
  TRACK 03 AUDIO
    TITLE "2:cjc031_0486"
    INDEX 01 00:02:59
  TRACK 04 AUDIO
    TITLE "3:cjc031_0487"
    INDEX 01 00:04:07
  TRACK 05 AUDIO
    TITLE "2:cjc031_0488"
    INDEX 01 00:05:36
  TRACK 06 AUDIO
    TITLE "3:cjc031_0489"
    INDEX 01 00:06:59
  TRACK 07 AUDIO
    TITLE "2:cjc031_0490"
    INDEX 01 00:08:24
  TRACK 08 AUDIO
    TITLE "3:cjc031_0491"
    INDEX 01 00:09:40
  TRACK 09 AUDIO
    TITLE "2:cjc031_0492"
    INDEX 01 00:10:68
  TRACK 10 AUDIO
    TITLE "3:cjc031_0493"
    INDEX 01 00:12:18
  TRACK 11 AUDIO
    TITLE "2:cjc031_0494"
    INDEX 01 00:14:02
  TRACK 12 AUDIO
    TITLE "3:cjc031_0495"
    INDEX 01 00:15:19
  TRACK 13 AUDIO
    TITLE "2:cjc031_0496"
    INDEX 01 00:16:69
  TRACK 14 AUDIO
    TITLE "3:cjc031_0497"
    INDEX 01 00:18:25
  TRACK 15 AUDIO
    TITLE "2:cjc031_0498"
    INDEX 01 00:19:40
  TRACK 16 AUDIO
    TITLE "3:cjc031_0499"
    INDEX 01 00:20:59
  TRACK 17 AUDIO
    TITLE "2:cjc031_0500"
    INDEX 01 00:22:30
  TRACK 18 AUDIO
    TITLE "3:cjc031_0501"
    INDEX 01 00:23:57
  TRACK 19 AUDIO
    TITLE "2:cjc031_0502"
    INDEX 01 00:25:09
  TRACK 20 AUDIO
    TITLE "3:cjc031_0503"
    INDEX 01 00:26:28
  TRACK 21 AUDIO
    TITLE "2:cjc031_0504"
    INDEX 01 00:28:10
  TRACK 22 AUDIO
    TITLE "3:cjc031_0505"
    INDEX 01 00:29:29
  TRACK 23 AUDIO
    TITLE "2:cjc031_0506"
    INDEX 01 00:30:73
  TRACK 24 AUDIO
    TITLE "3:cjc031_0507"
    INDEX 01 00:32:13
  TRACK 25 AUDIO
    TITLE "2:cjc031_0508"
    INDEX 01 00:33:40
  TRACK 26 AUDIO
    TITLE "3:cjc031_0509"
    INDEX 01 00:34:63
  TRACK 27 AUDIO
    TITLE "2:cjc031_0510"
    INDEX 01 00:36:44
  TRACK 28 AUDIO
    TITLE "3:cjc031_0511"
    INDEX 01 00:37:69
  TRACK 29 AUDIO
    TITLE "2:cjc031_0512"
    INDEX 01 00:39:25
  TRACK 30 AUDIO
    TITLE "3:cjc031_0513"
    INDEX 01 00:40:46
  TRACK 31 AUDIO
    TITLE "2:cjc031_0514"
    INDEX 01 00:42:35
  TRACK 32 AUDIO
    TITLE "3:cjc031_0515"
    INDEX 01 00:43:66
  TRACK 33 AUDIO
    TITLE "2:cjc031_0516"
    INDEX 01 00:45:22
  TRACK 34 AUDIO
    TITLE "3:cjc031_0517"
    INDEX 01 00:46:41
  TRACK 35 AUDIO
    TITLE "2:cjc031_0518"
    INDEX 01 00:48:14
  TRACK 36 AUDIO
    TITLE "3:cjc031_0519"
    INDEX 01 00:49:37
  TRACK 37 AUDIO
    TITLE "2:cjc031_0520"
    INDEX 01 00:50:62
  TRACK 38 AUDIO
    TITLE "3:cjc031_0521"
    INDEX 01 00:52:10
  TRACK 39 AUDIO
    TITLE "2:cjc031_0522"
    INDEX 01 00:53:43
  TRACK 40 AUDIO
    TITLE "3:cjc031_0523"
    INDEX 01 00:54:56
  TRACK 41 AUDIO
    TITLE "2:cjc031_0524"
    INDEX 01 00:56:06
  TRACK 42 AUDIO
    TITLE "3:cjc031_0525"
    INDEX 01 00:57:25
  TRACK 43 AUDIO
    TITLE "2:cjc031_0526"
    INDEX 01 00:58:46
  TRACK 44 AUDIO
    TITLE "3:cjc031_0527"
    INDEX 01 00:59:59
  TRACK 45 AUDIO
    TITLE "2:cjc031_0528"
    INDEX 01 01:01:36
  TRACK 46 AUDIO
    TITLE "3:cjc031_0529"
    INDEX 01 01:02:48
  TRACK 47 AUDIO
    TITLE "2:cjc031_0530"
    INDEX 01 01:04:13
  TRACK 48 AUDIO
    TITLE "3:cjc031_0531"
    INDEX 01 01:05:30
  TRACK 49 AUDIO
    TITLE "2:cjc031_0532"
    INDEX 01 01:07:00
  TRACK 50 AUDIO
    TITLE "3:cjc031_0533"
    INDEX 01 01:08:21
  TRACK 51 AUDIO
    TITLE "2:cjc031_0534"
    INDEX 01 01:09:67
  TRACK 52 AUDIO
    TITLE "3:cjc031_0535"
    INDEX 01 01:11:15
  TRACK 53 AUDIO
    TITLE "2:cjc031_0536"
    INDEX 01 01:12:60
  TRACK 54 AUDIO
    TITLE "3:cjc031_0537"
    INDEX 01 01:14:02
  TRACK 55 AUDIO
    TITLE "2:cjc031_0538"
    INDEX 01 01:15:35
  TRACK 56 AUDIO
    TITLE "3:cjc031_0539"
    INDEX 01 01:16:52
  TRACK 57 AUDIO
    TITLE "2:cjc031_0540"
    INDEX 01 01:18:25
  TRACK 58 AUDIO
    TITLE "3:cjc031_0541"
    INDEX 01 01:19:46
  TRACK 59 AUDIO
    TITLE "2:cjc031_0542"
    INDEX 01 01:20:53
  TRACK 60 AUDIO
    TITLE "3:cjc031_0543"
    INDEX 01 01:22:11
  TRACK 61 AUDIO
    TITLE "2:cjc031_0544"
    INDEX 01 01:23:46
  TRACK 62 AUDIO
    TITLE "3:cjc031_0545"
    INDEX 01 01:24:65
  TRACK 63 AUDIO
    TITLE "2:cjc031_0546"
    INDEX 01 01:26:36
  TRACK 64 AUDIO
    TITLE "3:cjc031_0547"
    INDEX 01 01:27:57
  TRACK 65 AUDIO
    TITLE "2:cjc031_0548"
    INDEX 01 01:29:23
  TRACK 66 AUDIO
    TITLE "3:cjc031_0549"
    INDEX 01 01:30:38
  TRACK 67 AUDIO
    TITLE "2:cjc031_0550"
    INDEX 01 01:31:71
  TRACK 68 AUDIO
    TITLE "3:cjc031_0551"
    INDEX 01 01:33:27
  TRACK 69 AUDIO
    TITLE "2:cjc031_0552"
    INDEX 01 01:34:52
  TRACK 70 AUDIO
    TITLE "3:cjc031_0553"
    INDEX 01 01:36:21
  TRACK 71 AUDIO
    TITLE "2:cjc031_0554"
    INDEX 01 01:37:62
  TRACK 72 AUDIO
    TITLE "3:cjc031_0555"
    INDEX 01 01:39:15
  TRACK 73 AUDIO
    TITLE "2:cjc031_0556"
    INDEX 01 01:40:36
  TRACK 74 AUDIO
    TITLE "3:cjc031_0557"
    INDEX 01 01:41:69
  TRACK 75 AUDIO
    TITLE "2:cjc031_0558"
    INDEX 01 01:43:29
  TRACK 76 AUDIO
    TITLE "3:cjc031_0559"
    INDEX 01 01:44:44
  TRACK 77 AUDIO
    TITLE "2:cjc031_0560"
    INDEX 01 01:45:73
  TRACK 78 AUDIO
    TITLE "3:cjc031_0561"
    INDEX 01 01:47:27
  TRACK 79 AUDIO
    TITLE "2:cjc031_0562"
    INDEX 01 01:48:60
  TRACK 80 AUDIO
    TITLE "3:cjc031_0563"
    INDEX 01 01:50:15
  TRACK 81 AUDIO
    TITLE "0:"
    INDEX 01 01:51:36
